<svg width="30" height="30" viewBox="0 0 30 30" fill="none" xmlns="http://www.w3.org/2000/svg">
<path d="M10.7144 8.57143H24.6429M10.7144 15H24.6429M10.7144 21.4286H24.6429" stroke="white" stroke-width="2" stroke-linecap="round" stroke-linejoin="round"/>
<path d="M6.4285 8.57143C6.4285 9.16316 5.94881 9.64286 5.35707 9.64286C4.76534 9.64286 4.28564 9.16316 4.28564 8.57143C4.28564 7.97969 4.76534 7.5 5.35707 7.5C5.94881 7.5 6.4285 7.97969 6.4285 8.57143Z" stroke="white"/>
<path d="M6.4285 15C6.4285 15.5917 5.94881 16.0714 5.35707 16.0714C4.76534 16.0714 4.28564 15.5917 4.28564 15C4.28564 14.4083 4.76534 13.9286 5.35707 13.9286C5.94881 13.9286 6.4285 14.4083 6.4285 15Z" stroke="white"/>
<path d="M6.4285 21.4286C6.4285 22.0203 5.94881 22.5 5.35707 22.5C4.76534 22.5 4.28564 22.0203 4.28564 21.4286C4.28564 20.8368 4.76534 20.3571 5.35707 20.3571C5.94881 20.3571 6.4285 20.8368 6.4285 21.4286Z" stroke="white"/>
</svg>
