<svg width="23" height="24" viewBox="0 0 23 24" fill="none" xmlns="http://www.w3.org/2000/svg">
<path d="M17.2057 14.7C15.5481 14.5875 14.1735 16.0218 14.2813 17.7515C14.3712 19.1812 15.4763 20.3343 16.8464 20.4281C18.504 20.5359 19.8741 19.1062 19.7708 17.3765C19.6854 15.9468 18.5759 14.789 17.2057 14.7ZM17.1249 19.139C16.213 19.2 15.4538 18.4125 15.5122 17.4562C15.5616 16.6687 16.1725 16.0312 16.9272 15.9796C17.8391 15.9187 18.5983 16.7062 18.5399 17.6625C18.4905 18.45 17.8796 19.0875 17.1249 19.139Z" fill="#909090"/>
<path d="M7.81271 14.7C6.15509 14.5875 4.78498 16.0218 4.8883 17.7515C4.97365 19.1812 6.08322 20.3343 7.45334 20.4281C9.11095 20.5406 10.4811 19.1062 10.3778 17.3765C10.2879 15.9468 9.18283 14.789 7.81271 14.7ZM7.73185 19.139C6.81994 19.2 6.06525 18.4125 6.11916 17.4609C6.16857 16.6734 6.77951 16.0359 7.5297 15.9843C8.44162 15.9234 9.2008 16.7109 9.1424 17.6671C9.09748 18.45 8.48205 19.0875 7.73185 19.139Z" fill="#909090"/>
<path d="M10.0625 18.2316H14.8018V16.9425H10.0625V18.2316Z" fill="#909090"/>
<path d="M22.1783 12.9515V16.8234C22.1783 17.6015 21.5764 18.2297 20.8307 18.2297H19.4201V16.9406H20.5207C20.7543 16.9406 20.9385 16.7437 20.9385 16.5047V13.1062C20.615 12.6656 20.2916 12.2203 19.9682 11.7797H14.6449C14.3035 11.7797 14.0295 11.489 14.0295 11.1375V5.02028H3.65254C3.31113 5.02028 3.03711 4.72965 3.03711 4.37809C3.03711 4.02184 3.31563 3.7359 3.65254 3.7359H14.6449C14.9863 3.7359 15.2604 4.02653 15.2604 4.37809V10.0828C15.2604 10.3125 15.4355 10.4953 15.6557 10.4953H20.7318L20.9205 10.8843C20.934 10.9125 20.952 10.9406 20.9699 10.964C21.3338 11.5031 21.6977 12.0375 22.066 12.5765C22.1379 12.689 22.1783 12.8156 22.1783 12.9515Z" fill="#909090"/>
<path d="M3.10859 16.9406H5.0582C5.39961 16.9406 5.67363 17.2312 5.67363 17.5828C5.67363 17.939 5.39512 18.225 5.0582 18.225H3.10859C2.76719 18.225 2.49316 17.9343 2.49316 17.5828C2.49316 17.2312 2.76719 16.9406 3.10859 16.9406Z" fill="#909090"/>
<path d="M2.29126 12.7452H5.59302C5.93443 12.7452 6.20845 13.0359 6.20845 13.3874C6.20845 13.7437 5.92994 14.0296 5.59302 14.0296H2.29126C1.94986 14.0296 1.67583 13.739 1.67583 13.3874C1.67134 13.0312 1.94986 12.7452 2.29126 12.7452Z" fill="#909090"/>
<path d="M1.13697 9.90469H7.35865C7.70005 9.90469 7.97408 10.1953 7.97408 10.5469C7.97408 10.9031 7.69556 11.1891 7.35865 11.1891H1.13697C0.795561 11.1891 0.521538 10.8984 0.521538 10.5469C0.517046 10.1906 0.795561 9.90469 1.13697 9.90469Z" fill="#909090"/>
<path d="M2.31861 7.10156H8.27076C8.61216 7.10156 8.88619 7.39219 8.88619 7.74375C8.88619 8.1 8.60767 8.38594 8.27076 8.38594H2.31861C1.9772 8.38594 1.70318 8.09531 1.70318 7.74375C1.69869 7.3875 1.9772 7.10156 2.31861 7.10156Z" fill="#909090"/>
<path d="M20.7322 10.4906H19.3486L17.8393 7.36871H15.2607V6.07965H18.1043C18.4053 6.07965 18.6793 6.25778 18.8186 6.53903L19.2228 7.36871" fill="#909090"/>
</svg>
