<svg width="119" height="36" viewBox="0 0 119 36" fill="none" xmlns="http://www.w3.org/2000/svg">
<g clip-path="url(#clip0_7664_9297)">
<path d="M51.1485 13.7144L51.3444 12.4103C51.7007 10.3279 52.9866 9.31825 55.2735 9.31825C55.8541 9.31825 56.3243 9.38836 56.6734 9.52859L56.8836 9.61273L57.4286 6.11054L57.2968 6.05795C56.6698 5.81606 55.9895 5.69336 55.277 5.69336C52.837 5.69336 50.9027 6.24726 49.5278 7.33403C48.1528 8.4243 47.2658 10.114 46.8882 12.3507L46.6816 13.7074H43.7179L43.1409 17.3288H46.1046L43.953 30.6925L43.921 30.8958H48.3879L50.5715 17.3288H55.6226L56.1996 13.7074H51.1485V13.7144Z" fill="white"/>
<path d="M72.9275 14.6116C71.5881 13.6966 69.6183 13.2339 67.0749 13.2339C64.4496 13.2339 62.38 13.6581 60.9231 14.4924C59.452 15.3373 58.5009 16.7431 58.1019 18.6642L58.0592 18.8746H62.1948L62.2304 18.7448C62.576 17.4898 64.1611 16.8553 66.9467 16.8553C69.5007 16.8553 70.7439 17.5634 70.7439 19.0218C70.7439 19.3303 70.7225 19.6353 70.6798 19.9263L70.5124 21.0341C69.002 20.5608 67.221 20.3224 65.2155 20.3224C62.2625 20.3224 59.9471 20.8448 58.3406 21.8754C56.7091 22.9201 55.8792 24.4872 55.8792 26.5275C55.8792 28.1191 56.4847 29.3461 57.6816 30.1664C58.8571 30.9727 60.5918 31.3829 62.836 31.3829C65.5396 31.3829 67.6912 30.559 69.2407 28.9359L68.9165 30.9026H73.1555L74.8724 20.2383C74.9401 19.8456 74.9722 19.2952 74.9722 18.6046C74.9757 16.8833 74.2882 15.5406 72.9275 14.6116ZM63.9117 27.9543C61.4788 27.9543 60.2428 27.3653 60.2428 26.205C60.2428 25.3916 60.6845 24.7781 61.5964 24.3259C62.5332 23.8597 63.8263 23.6248 65.4435 23.6248C67.2138 23.6248 68.7456 23.8106 69.9994 24.1822L69.832 25.1638C69.4366 26.0086 68.7099 26.6923 67.6769 27.1901C66.6225 27.6949 65.358 27.9543 63.9117 27.9543Z" fill="white"/>
<path d="M79.3784 17.3357H89.8083L89.7548 17.6723L77.754 26.419L77.697 26.4611L76.9668 30.9028H93.0035L93.6162 27.2814H82.9262L82.9761 26.9799L95.0731 18.2648L95.1337 18.2227L95.8603 13.7144H79.991L79.3784 17.3357Z" fill="white"/>
<path d="M116.564 14.9517C114.964 13.8123 112.588 13.2339 109.503 13.2339C105.916 13.2339 103.152 13.935 101.282 15.3233C99.4048 16.7115 98.1972 18.9622 97.6949 22.0157C97.5631 22.9797 97.499 23.8071 97.499 24.4767C97.499 29.0621 100.705 31.3864 107.031 31.3864C110.64 31.3864 113.429 30.6712 115.32 29.2654C117.219 27.8526 118.405 25.5915 118.843 22.5415C118.954 21.7247 119.007 20.8658 119.007 19.9859C119 17.7948 118.181 16.1015 116.564 14.9517ZM102.055 22.1313C102.393 20.2593 103.106 18.9061 104.171 18.1033C105.243 17.297 106.907 16.8868 109.115 16.8868C111.046 16.8868 112.46 17.1743 113.318 17.7387C114.166 18.2961 114.576 19.1585 114.576 20.368C114.576 20.7887 114.522 21.4828 114.416 22.4293C114.141 24.3189 113.461 25.6966 112.396 26.517C111.324 27.3443 109.653 27.7615 107.423 27.7615C105.492 27.7615 104.068 27.46 103.191 26.864C102.322 26.2751 101.898 25.3671 101.898 24.091C101.895 23.4775 101.948 22.8185 102.055 22.1313Z" fill="white"/>
<path d="M35.3291 0.462752C35.4039 0.234882 35.2329 0 34.9907 0H21.4368H7.64782C7.49465 0 7.35929 0.0981595 7.30942 0.238387L3.62618 11.1236L0.0177461 21.7879C-0.0570586 22.0158 0.113924 22.2507 0.356148 22.2507H13.6536C13.8067 22.2507 13.9421 22.1525 13.992 22.0123L17.5933 11.369C17.6432 11.2252 17.7785 11.1306 17.9317 11.1306H31.4642C31.6174 11.1306 31.7527 11.0324 31.8026 10.8922L35.3291 0.462752Z" fill="#ED3729"/>
<path d="M31.1152 22.7098C31.1936 22.482 31.019 22.2471 30.7768 22.2471H22.591H14.1666C14.0134 22.2471 13.8781 22.3452 13.8282 22.4855L9.41472 35.5337C9.33635 35.7615 9.5109 35.9964 9.75312 35.9964H17.6824C17.8356 35.9964 17.9709 35.8983 18.0208 35.758L20.183 29.3636C20.2329 29.2199 20.3683 29.1252 20.5214 29.1252H28.6894C28.8426 29.1252 28.9779 29.0271 29.0278 28.8869L31.1152 22.7098Z" fill="#FF6F43"/>
</g>
<defs>
<clipPath id="clip0_7664_9297">
<rect width="119" height="36" fill="white"/>
</clipPath>
</defs>
</svg>
