<svg width="119" height="36" viewBox="0 0 119 36" fill="none" xmlns="http://www.w3.org/2000/svg">
<g clip-path="url(#clip0_6716_9725)">
<path d="M51.1485 13.7143L51.3444 12.4102C51.7007 10.3278 52.9866 9.31814 55.2735 9.31814C55.8541 9.31814 56.3243 9.38826 56.6734 9.52848L56.8836 9.61262L57.4286 6.11043L57.2968 6.05785C56.6698 5.81595 55.9895 5.69325 55.277 5.69325C52.837 5.69325 50.9027 6.24715 49.5278 7.33392C48.1528 8.42419 47.2658 10.1139 46.8882 12.3506L46.6816 13.7073H43.7179L43.1409 17.3287H46.1046L43.953 30.6924L43.921 30.8957H48.3879L50.5715 17.3287H55.6226L56.1996 13.7073H51.1485V13.7143Z" fill="#202020"/>
<path d="M72.9275 14.6117C71.5881 13.6968 69.6183 13.234 67.0749 13.234C64.4496 13.234 62.38 13.6582 60.9231 14.4926C59.452 15.3374 58.5009 16.7432 58.1019 18.6643L58.0592 18.8747H62.1948L62.2304 18.745C62.576 17.4899 64.1611 16.8554 66.9467 16.8554C69.5007 16.8554 70.7439 17.5635 70.7439 19.0219C70.7439 19.3304 70.7225 19.6354 70.6798 19.9264L70.5124 21.0342C69.002 20.5609 67.221 20.3225 65.2155 20.3225C62.2625 20.3225 59.9471 20.8449 58.3406 21.8756C56.7091 22.9202 55.8792 24.4873 55.8792 26.5276C55.8792 28.1192 56.4847 29.3462 57.6816 30.1665C58.8571 30.9728 60.5918 31.383 62.836 31.383C65.5396 31.383 67.6912 30.5592 69.2407 28.936L68.9165 30.9027H73.1555L74.8724 20.2384C74.9401 19.8458 74.9722 19.2954 74.9722 18.6047C74.9757 16.8834 74.2882 15.5408 72.9275 14.6117ZM63.9117 27.9544C61.4788 27.9544 60.2428 27.3655 60.2428 26.2051C60.2428 25.3918 60.6845 24.7783 61.5964 24.326C62.5332 23.8598 63.8263 23.6249 65.4435 23.6249C67.2138 23.6249 68.7456 23.8107 69.9994 24.1823L69.832 25.1639C69.4366 26.0088 68.7099 26.6924 67.6769 27.1902C66.6225 27.695 65.358 27.9544 63.9117 27.9544Z" fill="#202020"/>
<path d="M79.3784 17.3357H89.8083L89.7548 17.6722L77.754 26.4189L77.697 26.461L76.9668 30.9027H93.0035L93.6162 27.2813H82.9262L82.9761 26.9798L95.0731 18.2647L95.1337 18.2226L95.8603 13.7143H79.991L79.3784 17.3357Z" fill="#202020"/>
<path d="M116.564 14.9518C114.964 13.8124 112.588 13.234 109.503 13.234C105.916 13.234 103.152 13.9351 101.282 15.3234C99.4048 16.7117 98.1972 18.9623 97.6949 22.0158C97.5631 22.9798 97.499 23.8072 97.499 24.4768C97.499 29.0622 100.705 31.3865 107.031 31.3865C110.64 31.3865 113.429 30.6713 115.32 29.2656C117.219 27.8528 118.405 25.5916 118.843 22.5416C118.954 21.7248 119.007 20.8659 119.007 19.986C119 17.7949 118.181 16.1017 116.564 14.9518ZM102.055 22.1315C102.393 20.2594 103.106 18.9062 104.171 18.1034C105.243 17.2971 106.907 16.8869 109.115 16.8869C111.046 16.8869 112.46 17.1744 113.318 17.7388C114.166 18.2962 114.576 19.1586 114.576 20.3681C114.576 20.7888 114.522 21.4829 114.416 22.4295C114.141 24.319 113.461 25.6968 112.396 26.5171C111.324 27.3444 109.653 27.7616 107.423 27.7616C105.492 27.7616 104.068 27.4601 103.191 26.8642C102.322 26.2752 101.898 25.3672 101.898 24.0912C101.895 23.4777 101.948 22.8186 102.055 22.1315Z" fill="#202020"/>
<path d="M35.3291 0.462752C35.4039 0.234882 35.2329 0 34.9907 0H21.4368H7.64782C7.49465 0 7.35929 0.0981595 7.30942 0.238387L3.62618 11.1236L0.0177461 21.7879C-0.0570586 22.0158 0.113924 22.2507 0.356148 22.2507H13.6536C13.8067 22.2507 13.9421 22.1525 13.992 22.0123L17.5933 11.369C17.6432 11.2252 17.7785 11.1306 17.9317 11.1306H31.4642C31.6174 11.1306 31.7527 11.0324 31.8026 10.8922L35.3291 0.462752Z" fill="#ED3729"/>
<path d="M31.1152 22.7099C31.1936 22.482 31.019 22.2471 30.7768 22.2471H22.591H14.1666C14.0134 22.2471 13.8781 22.3453 13.8282 22.4855L9.41472 35.5337C9.33635 35.7616 9.5109 35.9965 9.75312 35.9965H17.6824C17.8356 35.9965 17.9709 35.8983 18.0208 35.7581L20.183 29.3637C20.2329 29.22 20.3683 29.1253 20.5214 29.1253H28.6894C28.8426 29.1253 28.9779 29.0272 29.0278 28.8869L31.1152 22.7099Z" fill="#FF6F43"/>
</g>
<defs>
<clipPath id="clip0_6716_9725">
<rect width="119" height="36" fill="white"/>
</clipPath>
</defs>
</svg>
