<svg width="64" height="20" viewBox="0 0 64 20" fill="none" xmlns="http://www.w3.org/2000/svg">
<g clip-path="url(#clip0_6716_9732)">
<path d="M27.5085 7.61905L27.6139 6.89454C27.8055 5.73766 28.4971 5.17675 29.727 5.17675C30.0393 5.17675 30.2922 5.2157 30.4799 5.2936L30.5929 5.34035L30.886 3.39468L30.8152 3.36547C30.478 3.23108 30.1121 3.16292 29.7289 3.16292C28.4166 3.16292 27.3764 3.47064 26.6369 4.0744C25.8974 4.68011 25.4204 5.61885 25.2173 6.86143L25.1062 7.61515H23.5123L23.2019 9.62703H24.7958L23.6387 17.0513L23.6215 17.1643H26.0238L27.1982 9.62703H29.9147L30.2251 7.61515H27.5085V7.61905Z" fill="#202020"/>
<path d="M39.2216 8.11763C38.5013 7.6093 37.4418 7.35222 36.074 7.35222C34.6621 7.35222 33.549 7.58788 32.7655 8.05141C31.9742 8.52078 31.4627 9.30178 31.2482 10.3691L31.2252 10.4859H33.4494L33.4685 10.4139C33.6544 9.71662 34.5069 9.3641 36.005 9.3641C37.3786 9.3641 38.0472 9.75752 38.0472 10.5677C38.0472 10.7391 38.0357 10.9086 38.0127 11.0702L37.9227 11.6856C37.1104 11.4227 36.1525 11.2903 35.074 11.2903C33.4858 11.2903 32.2405 11.5805 31.3765 12.1531C30.4991 12.7335 30.0527 13.604 30.0527 14.7376C30.0527 15.6218 30.3784 16.3034 31.0221 16.7592C31.6543 17.2071 32.5873 17.435 33.7942 17.435C35.2483 17.435 36.4054 16.9773 37.2388 16.0756L37.0644 17.1682H39.3442L40.2676 11.2435C40.304 11.0254 40.3212 10.7196 40.3212 10.336C40.3232 9.37968 39.9534 8.63375 39.2216 8.11763ZM34.3728 15.5302C33.0643 15.5302 32.3995 15.203 32.3995 14.5584C32.3995 14.1065 32.6371 13.7657 33.1275 13.5145C33.6314 13.2554 34.3268 13.1249 35.1966 13.1249C36.1487 13.1249 36.9725 13.2282 37.6468 13.4346L37.5568 13.9799C37.3441 14.4493 36.9533 14.8291 36.3978 15.1057C35.8307 15.3861 35.1506 15.5302 34.3728 15.5302Z" fill="#202020"/>
<path d="M42.691 9.63093H48.3004L48.2716 9.8179L41.8174 14.6772L41.7868 14.7006L41.394 17.1682H50.0188L50.3483 15.1563H44.5991L44.6259 14.9888L51.1319 10.147L51.1645 10.1237L51.5553 7.61905H43.0205L42.691 9.63093Z" fill="#202020"/>
<path d="M62.6897 8.30655C61.8295 7.67357 60.5517 7.35222 58.8927 7.35222C56.9635 7.35222 55.4768 7.74174 54.4711 8.51299C53.4615 9.28425 52.812 10.5346 52.5419 12.231C52.471 12.7666 52.4365 13.2262 52.4365 13.5982C52.4365 16.1457 54.1607 17.4369 57.5631 17.4369C59.5038 17.4369 61.0038 17.0396 62.0211 16.2586C63.0422 15.4738 63.6802 14.2175 63.9158 12.5231C63.9752 12.0693 64.0039 11.5922 64.0039 11.1033C64.0001 9.88606 63.5595 8.94536 62.6897 8.30655ZM54.8868 12.2953C55.0688 11.2552 55.4519 10.5035 56.0248 10.0574C56.6014 9.6095 57.4961 9.38163 58.6838 9.38163C59.7222 9.38163 60.4827 9.54133 60.9444 9.8549C61.4004 10.1646 61.6207 10.6437 61.6207 11.3156C61.6207 11.5493 61.592 11.9349 61.5345 12.4608C61.387 13.5106 61.0211 14.276 60.4483 14.7317C59.8716 15.1913 58.9731 15.4231 57.7739 15.4231C56.7355 15.4231 55.9692 15.2556 55.4979 14.9245C55.0305 14.5973 54.8025 14.0929 54.8025 13.384C54.8006 13.0431 54.8293 12.677 54.8868 12.2953Z" fill="#202020"/>
<path d="M19.0005 0.257084C19.0408 0.13049 18.9488 0 18.8185 0H11.529H4.11312C4.03074 0 3.95794 0.0545331 3.93112 0.132437L1.95022 6.17976L0.00954411 12.1044C-0.030687 12.231 0.0612698 12.3615 0.191542 12.3615H7.3431C7.42547 12.3615 7.49827 12.3069 7.52509 12.229L9.46193 6.3161C9.48875 6.23625 9.56155 6.18366 9.64393 6.18366H16.9219C17.0043 6.18366 17.0771 6.12913 17.1039 6.05122L19.0005 0.257084Z" fill="#ED3729"/>
<path d="M16.7343 12.6166C16.7764 12.49 16.6825 12.3595 16.5523 12.3595H12.1498H7.61906C7.53668 12.3595 7.46388 12.4141 7.43706 12.492L5.06342 19.741C5.02128 19.8676 5.11515 19.998 5.24542 19.998H9.50992C9.59229 19.998 9.66509 19.9435 9.69191 19.8656L10.8548 16.3132C10.8816 16.2333 10.9544 16.1807 11.0368 16.1807H15.4296C15.512 16.1807 15.5848 16.1262 15.6116 16.0483L16.7343 12.6166Z" fill="#FF6F43"/>
</g>
<defs>
<clipPath id="clip0_6716_9732">
<rect width="64" height="20" fill="white"/>
</clipPath>
</defs>
</svg>
