<svg width="30" height="30" viewBox="0 0 30 30" fill="none" xmlns="http://www.w3.org/2000/svg">
<path fill-rule="evenodd" clip-rule="evenodd" d="M22.8686 15.4697C22.8514 15.5289 22.8309 15.5846 22.8077 15.642C22.7683 15.7371 22.7186 15.8289 22.6629 15.9189C22.6346 15.9634 22.614 16.0106 22.5823 16.0517C22.1897 16.5874 21.51 17.0023 20.6863 17.1943V17.2586C20.6863 17.592 20.4163 17.862 20.0829 17.862C19.752 17.862 19.4811 17.5929 19.4811 17.2586V12.7406C19.4811 12.408 19.7503 12.138 20.0829 12.138C20.4154 12.138 20.6863 12.4063 20.6863 12.7406V12.8057C21.51 12.9969 22.1897 13.4117 22.5823 13.9474C22.614 13.9886 22.6346 14.0366 22.6629 14.0803C22.7186 14.1703 22.7683 14.262 22.8077 14.358C22.8309 14.4146 22.8514 14.4694 22.8686 14.5294C22.914 14.682 22.9449 14.838 22.9449 15C22.9449 15.162 22.914 15.3171 22.8686 15.4697ZM9.91629 12.138C9.91801 12.138 9.91972 12.1389 9.92058 12.1389C9.92229 12.1389 9.92401 12.138 9.92572 12.138C10.2591 12.138 10.5283 12.408 10.5283 12.7406V17.2586C10.5283 17.5929 10.2574 17.862 9.92572 17.862C9.92401 17.862 9.92229 17.8603 9.92143 17.8603C9.91972 17.8603 9.91801 17.862 9.91629 17.862C9.58458 17.862 9.31372 17.5929 9.31372 17.2586V17.1909C8.52 17.0049 7.86258 16.6106 7.46743 16.1006C7.39115 16.0097 7.33286 15.9094 7.27715 15.804C7.25829 15.768 7.23686 15.7329 7.22058 15.696C7.18029 15.6069 7.14772 15.5169 7.12286 15.4209C7.10401 15.3463 7.09543 15.2709 7.08601 15.1946C7.07915 15.1286 7.05429 15.0677 7.05429 15C7.05429 14.9323 7.07915 14.8714 7.08601 14.8054C7.09543 14.7291 7.10401 14.6529 7.12286 14.5783C7.14772 14.4823 7.18029 14.3923 7.22058 14.3031C7.23686 14.2663 7.25743 14.2311 7.27715 14.1951C7.33286 14.0906 7.39115 13.9894 7.46743 13.8986C7.86258 13.3894 8.52 12.9943 9.31372 12.8083V12.7406C9.31372 12.408 9.58286 12.138 9.91629 12.138ZM12.1757 21.7406C12.5083 21.7406 12.7783 22.0106 12.7783 22.3431C12.7783 22.6749 12.5083 22.9449 12.1757 22.9449C11.8432 22.9449 11.5732 22.6749 11.5732 22.3431C11.5732 22.0106 11.8432 21.7406 12.1757 21.7406ZM21.7234 12.2606C21.4757 8.76686 18.5554 6 15 6C11.4446 6 8.52343 8.76686 8.27657 12.2606C6.98229 12.5014 6 13.6371 6 15V17.8243C6 20.4557 8.02457 22.6226 10.5986 22.8497C10.8129 23.5166 11.4394 24 12.1757 24C13.0894 24 13.8326 23.256 13.8326 22.3431C13.8326 21.4294 13.0894 20.6854 12.1757 20.6854C11.4549 20.6854 10.8403 21.1483 10.6131 21.7911C8.61514 21.5751 7.05429 19.8789 7.05429 17.8243V17.1806C7.41771 17.4694 7.85486 17.67 8.33314 17.7489C8.448 18.1251 8.90571 18.9163 9.91629 18.9163C10.824 18.9163 11.5731 18.1826 11.5731 17.2586V12.7406C11.5731 11.8311 10.8386 11.0829 9.91629 11.0829C9.79114 11.0829 9.66771 11.0974 9.54771 11.1249C10.2463 8.77371 12.426 7.05429 15 7.05429C17.574 7.05429 19.7537 8.77371 20.4514 11.1249C20.3323 11.0974 20.2089 11.0829 20.0829 11.0829C19.1751 11.0829 18.426 11.8174 18.426 12.7406V17.2586C18.426 18.168 19.1614 18.9163 20.0829 18.9163C21.0977 18.9163 21.5511 18.1243 21.6669 17.7489C22.9886 17.5311 24 16.3817 24 15C24 13.6371 23.0169 12.5014 21.7234 12.2606Z" fill="#909090"/>
</svg>
