<svg width="22" height="22" viewBox="0 0 22 22" fill="none" xmlns="http://www.w3.org/2000/svg">
<path d="M18.2665 7.69551L19.321 5.1628C19.4572 4.8356 19.4577 4.47497 19.3227 4.14726C19.1878 3.81955 18.9332 3.56396 18.6057 3.42775L12.8218 1.01945C12.4951 0.883235 12.1345 0.88223 11.8063 1.01744C11.4786 1.15264 11.223 1.40722 11.0868 1.73442L8.62921 7.63645C8.62519 7.64575 8.62393 7.65555 8.62067 7.66485H7.67549L9.35952 2.41874C9.38565 2.33682 9.4422 2.27022 9.51885 2.23076C9.59525 2.19131 9.6822 2.18402 9.76438 2.21066C10.0288 2.29585 10.3117 2.14984 10.3967 1.88571C10.4816 1.62133 10.3361 1.33836 10.0717 1.25342C9.73497 1.14535 9.3751 1.17501 9.0597 1.3366C8.74431 1.49869 8.51084 1.77388 8.40278 2.11139L6.62777 7.64148C6.62526 7.64902 6.62501 7.65681 6.62275 7.6646H5.86102L6.67653 3.36593C6.70945 3.19152 6.87959 3.07692 7.05274 3.10959C7.32642 3.16136 7.58878 2.98193 7.6403 2.70951C7.69207 2.43684 7.51289 2.17371 7.24022 2.12194C6.52323 1.98498 5.82509 2.4592 5.68888 3.17845L5.47576 4.30206H3.07399C1.90188 4.30206 0.954689 5.2191 0.917998 6.3902C0.917998 6.39096 0.918249 6.39171 0.918249 6.39246C0.918249 6.39699 0.916992 6.40151 0.916992 6.40603V18.8193C0.916992 20.0675 1.93254 21.0833 3.18105 21.0833H17.9139C19.1624 21.0833 20.1779 20.0675 20.1779 18.8193V9.92916C20.1769 8.80127 19.3471 7.86615 18.2665 7.69551ZM18.3931 4.53025C18.426 4.60967 18.4258 4.69712 18.3926 4.77654L17.8608 6.0537C17.024 5.60963 16.5867 4.66521 16.7687 3.75194L18.2192 4.3561C18.2986 4.38902 18.3605 4.45084 18.3931 4.53025ZM12.0149 2.12094C12.0478 2.04153 12.1099 1.9797 12.1893 1.94728C12.2684 1.91436 12.3556 1.91486 12.4353 1.94754L13.8859 2.55143C13.3664 3.32371 12.3883 3.67881 11.4828 3.39785L12.0149 2.12094ZM11.0968 4.32619C11.4313 4.44104 11.7731 4.49984 12.1111 4.49984C13.2073 4.49984 14.2548 3.92108 14.8255 2.94272L15.8313 3.36166C15.4495 4.79287 16.1288 6.31808 17.4748 6.98179L17.1904 7.66535H15.7142C15.4058 6.98304 14.8637 6.45102 14.1661 6.16076C13.439 5.85768 12.6376 5.85642 11.9096 6.15648C11.2102 6.44449 10.6613 6.97953 10.3507 7.66535H9.70658L11.0968 4.32619ZM14.5483 7.6651H11.518C11.7206 7.41228 11.9842 7.21249 12.2921 7.08558C12.7721 6.8878 13.3003 6.88905 13.7793 7.08834C14.0859 7.21601 14.3475 7.41404 14.5483 7.6651ZM3.07324 5.30781H5.28427L4.83718 7.6651H3.18004C2.4902 7.6651 1.92927 7.10694 1.92249 6.4186C1.9441 5.79535 2.44873 5.30781 3.07324 5.30781ZM19.1717 18.8195C19.1717 19.5136 18.607 20.0783 17.9129 20.0783H3.18004C2.48592 20.0783 1.92123 19.5136 1.92123 18.8195V8.28735C2.28161 8.52911 2.71436 8.67034 3.18004 8.67034H17.9129C18.607 8.67034 19.1717 9.23504 19.1717 9.92916V18.8195Z" fill="#909090"/>
<path d="M16.0431 12.2173C15.0122 12.2173 14.1738 13.056 14.1738 14.0866C14.1738 15.1172 15.0125 15.9558 16.0431 15.9558C17.0737 15.9558 17.9123 15.1175 17.9123 14.0866C17.9123 13.0557 17.0734 12.2173 16.0431 12.2173ZM16.0431 14.9506C15.5666 14.9506 15.1791 14.5631 15.1791 14.0866C15.1791 13.6101 15.5668 13.2226 16.0431 13.2226C16.5193 13.2226 16.9071 13.6101 16.9071 14.0866C16.9071 14.5631 16.5193 14.9506 16.0431 14.9506Z" fill="#909090"/>
</svg>
